<mxfile host="65bd71144e">
    <diagram id="Kn2dq1hbc2xhgc-ut72k" name="ページ1">
        <mxGraphModel dx="1176" dy="681" grid="1" gridSize="10" guides="1" tooltips="1" connect="1" arrows="1" fold="1" page="1" pageScale="1" pageWidth="827" pageHeight="1169" math="1" shadow="0">
            <root>
                <mxCell id="0"/>
                <mxCell id="1" parent="0"/>
                <mxCell id="4" value="" style="ellipse;whiteSpace=wrap;html=1;aspect=fixed;strokeColor=#56517e;fillColor=#d0cee2;" parent="1" vertex="1">
                    <mxGeometry x="110" y="234" width="28.78" height="25" as="geometry"/>
                </mxCell>
                <mxCell id="17" value="" style="endArrow=classic;html=1;strokeColor=#FF8000;strokeWidth=3;" parent="1" edge="1">
                    <mxGeometry width="50" height="50" relative="1" as="geometry">
                        <mxPoint x="122.88999999999999" y="246.92000000000002" as="sourcePoint"/>
                        <mxPoint x="324.89" y="247" as="targetPoint"/>
                    </mxGeometry>
                </mxCell>
                <mxCell id="18" value="" style="endArrow=classic;html=1;strokeColor=#FF8000;strokeWidth=3;" parent="1" edge="1">
                    <mxGeometry width="50" height="50" relative="1" as="geometry">
                        <mxPoint x="124" y="244.9999999999999" as="sourcePoint"/>
                        <mxPoint x="124" y="40" as="targetPoint"/>
                    </mxGeometry>
                </mxCell>
                <mxCell id="21" value="" style="endArrow=none;dashed=1;html=1;dashPattern=1 3;strokeWidth=2;strokeColor=#FF8000;fontSize=18;fontColor=#CCCCCC;" parent="1" edge="1">
                    <mxGeometry width="50" height="50" relative="1" as="geometry">
                        <mxPoint x="324.89" y="250" as="sourcePoint"/>
                        <mxPoint x="324.89" y="50" as="targetPoint"/>
                    </mxGeometry>
                </mxCell>
                <mxCell id="22" value="" style="endArrow=none;dashed=1;html=1;dashPattern=1 3;strokeWidth=2;strokeColor=#FF8000;fontSize=18;fontColor=#CCCCCC;" parent="1" edge="1">
                    <mxGeometry width="50" height="50" relative="1" as="geometry">
                        <mxPoint x="124.88999999999999" y="40" as="sourcePoint"/>
                        <mxPoint x="324.89" y="40" as="targetPoint"/>
                    </mxGeometry>
                </mxCell>
                <mxCell id="23" value="" style="endArrow=classic;html=1;strokeColor=#00FF00;strokeWidth=3;" parent="1" edge="1">
                    <mxGeometry width="50" height="50" relative="1" as="geometry">
                        <mxPoint x="124.8900000000001" y="249.9999999999999" as="sourcePoint"/>
                        <mxPoint x="324" y="40" as="targetPoint"/>
                    </mxGeometry>
                </mxCell>
                <mxCell id="36" value="\(v=?\)" style="text;html=1;align=center;verticalAlign=middle;whiteSpace=wrap;rounded=0;fontSize=24;fontColor=#CCCCCC;" parent="1" vertex="1">
                    <mxGeometry x="144.89" y="90" width="110" height="50" as="geometry"/>
                </mxCell>
                <mxCell id="70" value="\(v_x=10\)" style="text;html=1;align=center;verticalAlign=middle;whiteSpace=wrap;rounded=0;fontSize=24;fontColor=#CCCCCC;" vertex="1" parent="1">
                    <mxGeometry x="169.89" y="250" width="110" height="50" as="geometry"/>
                </mxCell>
                <mxCell id="71" value="\(v_y=10\)" style="text;html=1;align=center;verticalAlign=middle;whiteSpace=wrap;rounded=0;fontSize=24;fontColor=#CCCCCC;" vertex="1" parent="1">
                    <mxGeometry x="20" y="120" width="110" height="50" as="geometry"/>
                </mxCell>
            </root>
        </mxGraphModel>
    </diagram>
</mxfile>